<svg height="25px"  fill="#224157" viewBox="0 0 512 512" xmlns="http://www.w3.org/2000/svg"><path d="m485.792969 217.039062-100.230469 111.628907-48.855469-19.542969-101.445312 202.875h74.527343l136.515626-136.515625c7.613281-7.617187 4.960937-20.535156-5.035157-24.535156l-26.109375-10.441407 93.042969-103.546874c5.507813-6.179688 4.953125-15.671876-1.242187-21.164063-6.199219-5.539063-15.691407-4.984375-21.167969 1.242187zm0 0"/><path d="m175.285156 309.128906-48.847656 19.539063-100.234375-111.628907c-5.507813-6.226562-15.011719-6.78125-21.164063-1.246093-6.199218 5.492187-6.753906 14.984375-1.246093 21.167969l93.042969 103.542968-26.109376 10.445313c-9.996093 4-12.648437 16.917969-5.03125 24.535156l136.1875 136.191406 37.339844-74.679687zm0 0"/><path d="m458.609375 405.597656-106.398437 106.402344h113.789062c4.613281 0 8.976562-2.125 11.820312-5.769531 2.839844-3.632813 3.851563-8.378907 2.722657-12.863281zm0 0"/><path d="m31.453125 493.367188c-1.128906 4.480468-.117187 9.230468 2.722656 12.859374 2.84375 3.648438 7.207031 5.773438 11.824219 5.773438h113.789062l-106.402343-106.402344zm0 0"/><path d="m217.441406 326.34375 38.554688 77.109375 38.554687-77.105469c-12.378906 3.316406-25.140625 5.652344-38.550781 5.652344-13.414062 0-26.179688-2.339844-38.558594-5.65625zm0 0"/><path d="m137.511719 107h236.972656c-7.457031-59.113281-57.347656-107-118.484375-107s-111.03125 47.886719-118.488281 107zm0 0"/><path d="m376 182v-45h-240v45c0 4.859375.867188 9.480469 1.429688 14.191406l114.9375-28.738281c2.371093-.613281 4.890624-.613281 7.265624 0l114.9375 28.730469c.558594-4.707032 1.429688-9.324219 1.429688-14.183594zm0 0"/><path d="m367.605469 225.363281-111.605469-27.894531-111.609375 27.894531c17.417969 44.777344 60.671875 76.636719 111.609375 76.636719 50.933594 0 94.1875-31.859375 111.605469-76.636719zm0 0"/><path d="m451 212c0-30.738281-18.535156-57.085938-45-68.667969v38.667969c0 12-1.773438 24.113281-4.894531 36.011719 10.46875 5.550781 22.222656 8.988281 34.894531 8.988281 8.28125 0 15-6.714844 15-15zm0 0"/></svg>